<svg width="110" height="137" viewBox="0 0 110 137" fill="none" xmlns="http://www.w3.org/2000/svg">
<g clip-path="url(#clip0)">
<path d="M74.3839 23.7156C71.2421 26.7088 68.328 29.7643 65.7571 32.8363C62.6549 36.5417 60.9618 41.2152 60.9618 46.0364V55.1899H48.8137V46.1251C48.8137 41.3169 47.1438 36.65 44.0482 32.9577C41.5004 29.9186 38.6193 26.8959 35.5105 23.9355C24.1214 13.0984 26.9464 0.223175 26.9464 0.223175C34.3422 2.3499 40.1341 6.2686 45.827 14.7427C51.3021 22.8886 53.8399 34.0178 54.5825 37.7888C54.7508 38.6257 55.1336 38.4846 55.2689 37.7888C55.9521 34.2508 58.4834 22.8295 64.0641 14.5195C69.7536 6.04542 75.5489 2.13001 82.948 0C82.948 0 85.7697 12.872 74.3839 23.7156Z" fill="white"/>
<path d="M58.7277 132.451C66.8661 138.188 79.4763 136.872 79.4763 136.872C94.3009 137.01 109.129 111 109.967 84.2943C110.746 59.5121 97.6606 42.984 83.9514 39.6462C75.4533 37.5753 66.3645 40.2107 60.6848 42.5146C57.0413 43.9915 52.9589 43.9915 49.3155 42.5146C43.6358 40.214 34.5469 37.5785 26.0488 39.6462C12.3397 42.984 -0.74574 59.5121 0.0331148 84.2943C0.871374 111 15.6993 137.01 30.524 136.872C30.524 136.872 43.1341 138.188 51.2725 132.451C53.5002 130.879 56.5001 130.879 58.7277 132.451Z" fill="white"/>
</g>
<defs>
<clipPath id="clip0">
<rect width="110" height="137" fill="white"/>
</clipPath>
</defs>
</svg>
